<svg xmlns="http://www.w3.org/2000/svg" xmlnsXlink="http://www.w3.org/1999/xlink" viewBox="0 0 150 30" width="150" height="30">
  <g fill="none" fill-rule="nonzero">
    <g fill="#000">
      <path d="M18.02.593v19.14c0 4.61-7.029 7.462-12.76 7.462-2.496 0-3.948-.475-5.26-1.028.702.303 2.34 2.38 2.34 2.38 1.303.557 2.764 1.036 5.266 1.036 5.717 0 12.755-2.862 12.755-7.472V2.967L18.019.593M66.87 10.637l-3.6-7.686L60.933.568l5.29 11.312.649-1.243M53.521 11.397v15.257h-4.823l2.349 2.381h4.807V16.398M83.177.568v26.086H71.56l2.325 2.381h11.626V2.945L83.177.569M71.56 11.625l-7.148 15.029H60.66l2.332 2.381h3.759l4.808-10.103v-7.307M101.362 23.944v-8.329c.965-.088 1.807.015 2.703.493a5.364 5.364 0 0 0-1.462-1.779c-1.241-.985-2.313-1.218-3.584-1.1v10.917c.833.089 1.606.044 2.343-.202M99.908 3.022c-.335 0-.545.076-.889.076v7.71c.787-.028 1.581-.06 2.343-.263V5.477c.34 0 .553-.08.888-.08.735 0 1.376.1 1.933.281-.47-1.665-1.926-2.656-4.275-2.656"></path>
      <path d="M114.664 16.245l-1.958-1.954c1.062 1.274 1.252 2.941 1.238 4.707-.004 4.811-4.075 7.7-13.586 7.7H87.364l2.332 2.375h12.992c9.518 0 13.583-2.906 13.602-7.695.011-1.97-.199-3.817-1.626-5.133M113.016 6.96c0 2.626-1.127 4.581-5.23 5.138 2.252.296 3.686.959 4.604 1.854v-.007c2.285-.88 2.959-2.548 2.959-4.613 0-1.54-.49-2.732-1.38-3.642l-2.26-2.304-.005.021c.841.898 1.312 2.06 1.312 3.553M131.41 24.595c-.683-1.959-.905-4.98-.905-8.593 0-6.416.691-10.996 3.51-10.996h.24c-.542-1.518-1.367-2.39-2.588-2.39-2.812 0-3.507 4.583-3.507 11.013 0 6.204.658 10.685 3.25 10.966"></path>
      <path d="M145.514 6.871l-1.718-1.74c2.142 2.328 3.426 5.282 3.426 8.498 0 7.499-6.961 13.566-15.555 13.566-4.602 0-8.735-1.743-11.582-4.515l2.233 2.284v-.003c2.86 2.837 7.036 4.622 11.697 4.622 8.586 0 15.546-6.082 15.546-13.581 0-3.52-1.531-6.718-4.047-9.13M36.127 24.359a7.163 7.163 0 0 1-.233-1.86V2.967L33.554.593v19.533c0 1.738.577 3.902 2.542 4.238l.031-.005"></path>
      <path d="M44.48.593V18.11c0 6.067-2.57 9.14-11.22 9.14-4.257 0-7.251-.958-9.088-2.82l.09.097 1.872 1.862c1.79 2.127 4.899 3.23 9.473 3.23 8.643 0 11.212-3.072 11.212-9.109V2.967L44.48.593"></path>
    </g>
    <g fill="#FDC513">
      <path d="M0 23.337c.77.386 1.533.66 2.34.66 2.664 0 4.008-1.255 4.008-3.525V.592H18.02v19.14c0 4.611-7.028 7.463-12.76 7.463-2.495 0-3.947-.475-5.259-1.028v-2.83M48.698 26.654V.568h12.234l5.29 11.312L72.125.568h11.052v26.086H71.56v-15.03l-7.148 15.03H60.66l-7.14-15.257v15.257h-4.823M99.02 10.807c1.177-.042 2.374-.083 3.447-.71 1.175-.657 1.884-1.877 1.884-3.129 0-2.432-1.538-3.946-4.443-3.946-.335 0-.545.076-.889.076v7.71zm0 13.34c1.49.157 2.795-.084 4.033-1.216 1.073-.976 1.684-2.388 1.684-3.984 0-1.916-.784-3.566-2.134-4.618-1.241-.985-2.313-1.218-3.584-1.1v10.917zm-11.658 2.551V.593h12.95c7.09 0 12.704 1.21 12.704 6.367 0 2.626-1.127 4.581-5.23 5.138 5.545.729 6.183 3.654 6.158 6.9-.004 4.811-4.075 7.7-13.586 7.7H87.362zM131.667 24.622c2.8 0 3.514-4.584 3.514-10.993 0-6.43-.714-11.014-3.514-11.014-2.812 0-3.507 4.584-3.507 11.014 0 6.409.695 10.993 3.507 10.993M116.12 13.629c0-7.495 6.96-13.58 15.547-13.58 8.594 0 15.555 6.085 15.555 13.58 0 7.499-6.961 13.566-15.555 13.566-8.587 0-15.547-6.067-15.547-13.566M36.639 24.415c-2.407 0-3.085-2.4-3.085-4.29V.594H21.948V18.11c0 6.002 3.59 9.14 11.312 9.14 8.65 0 11.22-3.073 11.22-9.14V.593h-4.743V20.11c0 1.896-.658 4.304-3.098 4.304"></path>
    </g>
  </g>
</svg>
