<svg version="1.1" xmlns="http://www.w3.org/2000/svg" xmlns:xlink="http://www.w3.org/1999/xlink" width="150" height="30" x="0px" y="0px" viewBox="0 0 175 35" style="enable-background:new 0 0 175 35;" xml:space="preserve">
	<style type="text/css">
		.plus-path-0{fill-rule:evenodd;clip-rule:evenodd;fill:#80BD1D;}
		.plus-path-1{fill-rule:evenodd;clip-rule:evenodd;fill:#554DA7;}
		.plus-path-2{fill-rule:evenodd;clip-rule:evenodd;fill:#227647;}
		.plus-path-3{fill-rule:evenodd;clip-rule:evenodd;fill:#e3131d;}
	</style>
	<g>
		<path class="plus-path-0" d="M173.3,4.7c0,2.2-1.7,4-3.8,4c-0.2,0-0.5,0-0.7-0.1c-1.6-0.3-3.2-0.5-4.9-0.5c-1.9,0-5.2,0.1-5.2,2.2   c0,4.4,16.6,0.2,16.6,13.2c0,9-8.4,11.3-15.4,11.3c-3.6,0-6.6-0.3-9.9-0.9c-1.8-0.3-3.2-2-3.2-4v-5.4c3.2,1.4,7.3,2.2,10.9,2.2   c2.9,0,5.5-0.6,5.5-2.3c0-4.5-16.6-0.5-16.6-13.5c0-9.3,9.1-10.9,16.3-10.9c3.4,0,7.2,0.5,10.5,1.2V4.7L173.3,4.7L173.3,4.7z"/>
		<path class="plus-path-0" d="M42.4,34.2c0,0,0-28.4,0-29.5c0-2.2,1.6-4,3.8-4c1,0,17.2,0,17.2,0c4.9,0,11.6,2.6,11.6,11.6   c0,8.8-5.3,12.3-11.6,12.3h-8.7v5.7c0,2.2-1.7,4-3.8,4H42.4L42.4,34.2z M54.6,8.5v8.3h2.3c2.9,0,5.9-0.6,5.9-4.3c0-3.6-3-4-5.9-4   H54.6L54.6,8.5z"/>
		<path class="plus-path-0" d="M140.5,20.4c0,10.9-6.3,14.4-15.9,14.4c-8.9,0-15.8-3.9-15.8-13.8V0.6h8.4c2.1,0,3.8,1.8,3.8,4v15.9   c0,3.2,0.9,5.6,3.8,5.6c3.2,0,3.9-2.3,3.9-5.5v-20h8.1c2,0,3.8,1.8,3.8,4V20.4L140.5,20.4z"/>
		<path class="plus-path-0" d="M80.3,34.2V0.6h8.4c2,0,3.8,1.8,3.8,4v19.7h12.2v5.9c0,2.2-1.7,4-3.8,4H80.3L80.3,34.2z"/>
		<path class="plus-path-0" d="M14.9,8.2v5.5c0,1.5-1.1,2.7-2.6,2.7H7.2c-4.2,0-7.6-3.6-7.6-8.1c0-4.4,3.4-8.1,7.6-8.1   C11.5,0.2,14.9,3.8,14.9,8.2L14.9,8.2z"/>
		<path class="plus-path-1" d="M14.9,26.8v-5.4c0-1.5-1.1-2.7-2.6-2.7H7.2c-4.2,0-7.6,3.6-7.6,8.1c0,4.5,3.4,8.1,7.6,8.1   C11.5,34.9,14.9,31.3,14.9,26.8L14.9,26.8z"/>
		<path class="plus-path-2" d="M17,26.8v-5.4c0-1.5,1.1-2.7,2.6-2.7h5.1c4.2,0,7.7,3.6,7.7,8.1c0,4.5-3.5,8.1-7.7,8.1   C20.5,34.9,17,31.3,17,26.8L17,26.8z"/>
		<path class="plus-path-3" d="M17.1,8.2v5.5c0,1.5,1.1,2.7,2.5,2.7h5.1c4.3,0,7.7-3.6,7.7-8.1c0-4.4-3.4-8.1-7.7-8.1   C20.5,0.2,17.1,3.8,17.1,8.2L17.1,8.2z"/>
	</g>
</svg>
